<?xml version="1.0" encoding="UTF-8" standalone="no"?><!-- Generator: Gravit.io --><svg xmlns="http://www.w3.org/2000/svg" xmlns:xlink="http://www.w3.org/1999/xlink" style="isolation:isolate" viewBox="144.01 228.802 719.99 119.338" width="719.99pt" height="119.338pt"><defs><clipPath id="_clipPath_wrXke2ymOwLNJ3OlCx7W5w9SCv1guZMZ"><rect x="144.01" y="228.802" width="719.99" height="119.338"/></clipPath></defs><g clip-path="url(#_clipPath_wrXke2ymOwLNJ3OlCx7W5w9SCv1guZMZ)"><g><g><path d=" M 307.19 293.68 L 307.19 307.64 L 290.55 307.64 L 290.55 253.5 L 340.88 253.5 C 344.24 253.5 347.06 253.81 349.36 254.43 C 351.66 255.05 353.53 256.04 354.96 257.39 C 356.39 258.74 357.42 260.5 358.04 262.67 C 358.66 264.84 358.97 267.49 358.97 270.62 C 358.97 273.87 358.71 276.44 358.2 278.33 C 357.68 280.22 356.93 281.71 355.93 282.79 C 354.93 283.87 353.7 284.68 352.24 285.22 C 350.78 285.76 349.13 286.3 347.29 286.85 C 348.8 287.17 350.24 287.46 351.59 287.7 C 352.94 287.94 354.12 288.42 355.12 289.12 C 356.12 289.83 356.91 290.84 357.47 292.16 C 358.04 293.49 358.32 295.4 358.32 297.88 L 358.32 307.62 L 341.7 307.62 L 341.7 300.48 C 341.7 298.15 341.23 296.43 340.28 295.32 C 339.33 294.21 337.42 293.66 334.56 293.66 L 307.19 293.66 L 307.19 293.68 Z  M 307.19 280.53 L 331.95 280.53 C 332.38 280.53 332.73 280.54 333 280.57 C 333.27 280.6 333.62 280.61 334.06 280.61 C 336.01 280.61 337.54 280.5 338.65 280.29 C 339.76 280.07 340.6 279.68 341.17 279.11 C 341.74 278.54 342.09 277.77 342.22 276.8 C 342.35 275.83 342.42 274.58 342.42 273.07 C 342.42 271.61 342.27 270.46 341.97 269.62 C 341.67 268.78 341.17 268.13 340.47 267.67 C 339.77 267.21 338.82 266.93 337.63 266.82 C 336.44 266.71 334.95 266.66 333.17 266.66 L 307.19 266.66 L 307.19 280.53 L 307.19 280.53 Z " fill="rgb(255,255,255)"/><path d=" M 366.54 285.72 C 366.54 280.58 366.61 276.15 366.74 272.45 C 366.87 268.74 367.39 265.62 368.28 263.07 C 369.17 260.53 370.58 258.51 372.5 257.02 C 374.42 255.53 377.17 254.46 380.74 253.81 C 383.17 253.38 387.6 253.12 394.01 253.04 C 400.42 252.96 408.83 252.92 419.22 252.92 C 422.63 252.92 425.58 253.22 428.07 253.81 C 430.56 254.41 432.66 255.34 434.36 256.61 C 436.07 257.88 437.4 259.55 438.38 261.6 C 439.35 263.66 440.03 266.15 440.41 269.07 C 440.63 270.58 440.75 272.56 440.78 274.99 C 440.81 277.43 440.82 280.27 440.82 283.51 C 440.82 287.46 440.58 290.8 440.09 293.54 C 439.6 296.27 438.76 298.56 437.57 300.4 C 436.38 302.24 434.8 303.68 432.82 304.7 C 430.84 305.73 428.37 306.5 425.39 307.01 C 422.41 307.53 418.91 307.85 414.88 307.98 C 410.85 308.12 406.15 308.18 400.79 308.18 C 394.73 308.18 389.53 308 385.2 307.65 C 380.87 307.3 377.33 306.38 374.57 304.89 C 371.81 303.4 369.78 301.16 368.48 298.15 C 367.18 295.18 366.54 291.03 366.54 285.72 Z  M 383.34 278.26 C 383.34 281.02 383.38 283.35 383.46 285.24 C 383.54 287.14 383.76 288.71 384.11 289.95 C 384.46 291.2 385 292.14 385.73 292.79 C 386.46 293.44 387.49 293.93 388.81 294.25 C 390.14 294.57 391.79 294.76 393.76 294.82 C 395.74 294.87 398.13 294.9 400.94 294.9 C 406.57 294.9 410.95 294.83 414.09 294.7 C 417.23 294.56 419.54 294.04 421.03 293.12 C 422.52 292.2 423.42 290.7 423.75 288.61 C 424.08 286.53 424.24 283.57 424.24 279.72 C 424.24 276.58 424.09 274.11 423.79 272.29 C 423.49 270.48 422.86 269.12 421.88 268.23 C 420.91 267.34 419.47 266.78 417.58 266.57 C 415.68 266.35 413.17 266.24 410.03 266.24 C 404.35 266.24 399.75 266.24 396.23 266.24 C 392.71 266.24 390.01 266.58 388.11 267.25 C 386.21 267.93 384.94 269.1 384.29 270.78 C 383.64 272.46 383.34 274.96 383.34 278.26 Z " fill="rgb(255,255,255)"/><path d=" M 466.47 253.5 L 466.47 294.17 L 503.73 294.17 L 503.73 307.65 L 449.83 307.65 L 449.83 253.5 L 466.47 253.5 L 466.47 253.5 Z " fill="rgb(255,255,255)"/><path d=" M 509.41 307.64 L 509.41 253.5 L 569.81 253.5 L 569.81 265.68 L 525.73 265.68 L 525.73 275.1 L 566.89 275.1 L 566.89 285.82 L 525.73 285.82 L 525.73 295.48 L 569.81 295.48 L 569.81 307.66 L 509.41 307.66 L 509.41 307.64 Z " fill="rgb(255,255,255)"/><path d=" M 689.87 253.5 L 667.55 307.65 L 645.14 307.65 L 633.13 269.25 L 620.63 307.65 L 598.47 307.65 L 576.47 253.5 L 593.44 253.5 L 609.19 294.58 L 623.4 253.5 L 643.29 253.5 L 656.77 294.58 L 673.09 253.5 L 689.87 253.5 L 689.87 253.5 Z " fill="rgb(255,255,255)"/><path d=" M 713.98 253.5 L 713.98 307.65 L 697.34 307.65 L 697.34 253.5 L 713.98 253.5 L 713.98 253.5 Z " fill="rgb(255,255,255)"/><path d=" M 775.43 272.57 C 775.38 270.89 775.13 269.62 774.7 268.75 C 774.27 267.88 773.45 267.26 772.27 266.88 C 771.08 266.5 769.39 266.3 767.2 266.27 C 765.01 266.24 762.13 266.23 758.55 266.23 C 754.49 266.23 751.22 266.27 748.73 266.35 C 746.24 266.43 744.29 266.83 742.88 267.53 C 741.47 268.24 740.53 269.41 740.04 271.06 C 739.55 272.71 739.31 275.11 739.31 278.24 C 739.31 282.25 739.43 285.34 739.68 287.53 C 739.92 289.72 740.65 291.35 741.87 292.4 C 743.09 293.46 744.97 294.08 747.51 294.27 C 750.05 294.46 753.6 294.55 758.15 294.55 C 761.56 294.55 764.4 294.55 766.67 294.55 C 768.94 294.55 770.74 294.34 772.07 293.9 C 773.4 293.47 774.34 292.72 774.91 291.67 C 775.48 290.61 775.76 289.03 775.76 286.92 L 792 286.92 C 792 287.35 792.01 287.75 792.04 288.1 C 792.07 288.45 792.08 288.84 792.08 289.28 C 792.08 292.04 791.9 294.47 791.55 296.59 C 791.2 298.7 790.59 300.49 789.72 301.95 C 788.85 303.41 787.69 304.58 786.23 305.44 C 784.77 306.31 782.96 306.85 780.79 307.07 C 777.27 307.45 773.96 307.73 770.85 307.92 C 767.74 308.11 764.88 308.2 762.28 308.2 C 753.78 308.2 745.86 307.96 738.49 307.47 C 735.62 307.31 733.19 306.69 731.18 305.6 C 729.18 304.52 727.55 302.94 726.31 300.85 C 725.06 298.77 724.16 296.16 723.59 293.02 C 723.02 289.88 722.74 286.12 722.74 281.74 C 722.74 278.98 722.77 276.45 722.82 274.15 C 722.87 271.85 723.08 269.74 723.43 267.82 C 723.78 265.9 724.32 264.14 725.05 262.54 C 725.78 260.95 726.82 259.5 728.18 258.2 C 729.53 256.9 731.12 255.9 732.93 255.2 C 734.74 254.5 736.87 253.98 739.3 253.66 C 741.74 253.33 744.5 253.13 747.58 253.05 C 750.67 252.97 754.13 252.93 757.97 252.93 C 764.63 252.93 770.11 253.07 774.41 253.34 C 778.71 253.61 782.11 254.37 784.6 255.61 C 787.09 256.86 788.82 258.8 789.8 261.46 C 790.77 264.11 791.29 267.82 791.34 272.58 L 775.43 272.58 L 775.43 272.57 Z " fill="rgb(255,255,255)"/><path d=" M 863.19 266.08 L 821.95 295.14 L 864 295.14 L 864 307.64 L 798.08 307.64 L 798.08 295.14 L 838.91 266.08 L 799.13 266.08 L 799.13 253.5 L 863.18 253.5 L 863.18 266.08 L 863.19 266.08 Z " fill="rgb(255,255,255)"/></g><g><path d=" M 210.79 255.99 C 198.63 250.51 176.64 252.84 165.01 254.63 C 151.21 278.74 157.39 299.91 163.99 304.68 C 157.73 319.18 163.99 333.98 163.99 333.98 C 163.99 333.98 163.14 310.47 190.24 292.78 C 214.94 276.65 222.96 261.47 210.79 255.99 Z " fill="rgb(255,255,255)"/><path d=" M 264.2 279.55 C 262.85 252.53 241.06 230.51 214.06 228.9 C 196.64 227.86 180.93 235.19 170.47 247.22 C 161.39 249.78 152.55 253.06 144.01 256.9 C 162.25 252.2 180.67 248.52 199.11 247.78 C 208.28 247.53 217.53 247.81 226.1 250.04 C 230.33 251.16 234.47 252.65 237.75 255.02 C 241.12 257.29 243.36 260.47 244.28 264 C 245.17 267.54 244.52 271.6 242.95 275.53 C 241.39 279.47 239.03 283.27 236.45 286.94 C 233.83 290.61 230.88 294.11 227.77 297.49 L 225.4 300.03 C 224.57 300.95 223.72 301.85 222.94 302.83 C 221.36 304.75 219.86 306.78 218.61 309.02 C 216.08 313.41 214.42 318.8 215.22 324.15 C 215.98 329.48 218.84 334.05 222.22 337.58 C 226.56 341.99 231.56 345.36 236.82 348.14 C 236.82 348.14 230.08 340.7 232.86 330.97 C 252.14 322.21 265.34 302.37 264.2 279.55 Z " fill="rgb(4,49,152)"/><path d=" M 196.363 331.272 L 187.108 331.8 L 187.791 339 L 197.322 338.189 L 196.363 331.272 Z  M 195.697 322.26 L 187.444 322.766 L 187 327.765 L 195.639 327.339 L 195.697 322.26 Z  M 197.518 314.025 L 190.21 314.024 L 188.329 318.749 L 196.069 318.579 L 197.518 314.025 Z  M 191.663 310.705 L 198.624 310.794 L 200.055 308.033 L 193.46 307.856 L 191.663 310.705 Z  M 195.6 305.028 L 201.828 305.284 L 203.962 302.546 L 198.12 302.201 L 195.6 305.028 Z  M 201.053 299.402 L 206.507 299.807 L 209.241 297.049 L 204.079 296.658 L 201.053 299.402 Z  M 207.095 293.925 L 211.966 294.291 L 214.68 291.523 L 210.101 291.182 L 207.095 293.925 Z  M 213.088 288.451 L 217.374 288.757 L 220.017 285.983 L 216.013 285.702 L 213.088 288.451 Z  M 218.879 282.976 L 222.601 283.222 L 225.043 280.429 L 221.594 280.229 L 218.879 282.976 Z  M 224.088 277.473 L 227.273 277.617 L 229.132 274.784 L 226.211 274.706 L 224.088 277.473 Z  M 227.792 271.937 L 230.438 271.93 L 231.053 269.092 L 228.701 269.163 L 227.792 271.937 Z  M 228.849 265.026 C 228.892 265.481 228.966 265.935 228.99 266.402 L 231.029 266.296 C 230.965 265.832 230.831 265.371 230.737 264.908 L 230.425 263.521 L 228.708 263.659 L 228.849 265.026 Z  M 229.012 260.807 C 228.395 259.924 227.628 259.058 226.673 258.211 L 225.629 258.375 C 226.464 259.217 227.12 260.079 227.626 260.958 L 229.012 260.807 Z  M 223.221 255.812 C 221.869 255.056 220.29 254.192 218.483 253.558 L 218.124 253.975 C 219.822 254.634 221.274 255.196 222.517 255.967 L 223.221 255.812 Z  M 214.923 252.359 C 213.769 252.13 210.034 251.636 208.734 251.504 C 210.015 251.657 213.566 252.479 214.681 252.72 L 214.923 252.359 Z " fill="rgb(192,192,192)"/></g></g></g></svg>