<?xml version="1.0" encoding="UTF-8" standalone="no"?><!-- Generator: Gravit.io --><svg xmlns="http://www.w3.org/2000/svg" xmlns:xlink="http://www.w3.org/1999/xlink" style="isolation:isolate" viewBox="0 0 719.99 119.338" width="719.99pt" height="119.338pt"><defs><clipPath id="_clipPath_5ZsFI6hnrGi1YhAvGR2R2OGhxicXDkC5"><rect width="719.99" height="119.338"/></clipPath></defs><g clip-path="url(#_clipPath_5ZsFI6hnrGi1YhAvGR2R2OGhxicXDkC5)"><clipPath id="_clipPath_LOlEUzJ5EddI7VmDTTPxWJt1Hqyd7J8J"><rect x="0" y="0" width="719.99" height="119.338" transform="matrix(1,0,0,1,0,0)" fill="rgb(255,255,255)"/></clipPath><g clip-path="url(#_clipPath_LOlEUzJ5EddI7VmDTTPxWJt1Hqyd7J8J)"><g><g><g><linearGradient id="_lgradient_13" x1="0.4789781260094697" y1="1.0510489702666233" x2="0.6180195971683319" y2="-0.016847526515405553" gradientTransform="matrix(573.45,0,0,55.28,146.54,24.118)" gradientUnits="userSpaceOnUse"><stop offset="0.8695652173913043%" stop-opacity="1" style="stop-color:rgb(174,174,174)"/><stop offset="98.69565217391305%" stop-opacity="1" style="stop-color:rgb(215,214,214)"/></linearGradient><path d=" M 163.18 64.878 L 163.18 78.838 L 146.54 78.838 L 146.54 24.698 L 196.87 24.698 C 200.23 24.698 203.05 25.008 205.35 25.628 C 207.65 26.248 209.52 27.238 210.95 28.588 C 212.38 29.938 213.41 31.698 214.03 33.868 C 214.65 36.038 214.96 38.688 214.96 41.818 C 214.96 45.068 214.7 47.638 214.19 49.528 C 213.67 51.418 212.92 52.908 211.92 53.988 C 210.92 55.068 209.69 55.878 208.23 56.418 C 206.77 56.958 205.12 57.498 203.28 58.048 C 204.79 58.368 206.23 58.658 207.58 58.898 C 208.93 59.138 210.11 59.618 211.11 60.318 C 212.11 61.028 212.9 62.038 213.46 63.358 C 214.03 64.688 214.31 66.598 214.31 69.078 L 214.31 78.818 L 197.69 78.818 L 197.69 71.678 C 197.69 69.348 197.22 67.628 196.27 66.518 C 195.32 65.408 193.41 64.858 190.55 64.858 L 163.18 64.858 L 163.18 64.878 Z  M 163.18 51.728 L 187.94 51.728 C 188.37 51.728 188.72 51.738 188.99 51.768 C 189.26 51.798 189.61 51.808 190.05 51.808 C 192 51.808 193.53 51.698 194.64 51.488 C 195.75 51.268 196.59 50.878 197.16 50.308 C 197.73 49.738 198.08 48.968 198.21 47.998 C 198.34 47.028 198.41 45.778 198.41 44.268 C 198.41 42.808 198.26 41.658 197.96 40.818 C 197.66 39.978 197.16 39.328 196.46 38.868 C 195.76 38.408 194.81 38.128 193.62 38.018 C 192.43 37.908 190.94 37.858 189.16 37.858 L 163.18 37.858 L 163.18 51.728 L 163.18 51.728 Z  M 222.53 56.918 C 222.53 51.778 222.6 47.348 222.73 43.648 C 222.86 39.938 223.38 36.818 224.27 34.268 C 225.16 31.728 226.57 29.708 228.49 28.218 C 230.41 26.728 233.16 25.658 236.73 25.008 C 239.16 24.578 243.59 24.318 250 24.238 C 256.41 24.158 264.82 24.118 275.21 24.118 C 278.62 24.118 281.57 24.418 284.06 25.008 C 286.55 25.608 288.65 26.538 290.35 27.808 C 292.06 29.078 293.39 30.748 294.37 32.798 C 295.34 34.858 296.02 37.348 296.4 40.268 C 296.62 41.778 296.74 43.758 296.77 46.188 C 296.8 48.628 296.81 51.468 296.81 54.708 C 296.81 58.658 296.57 61.998 296.08 64.738 C 295.59 67.468 294.75 69.758 293.56 71.598 C 292.37 73.438 290.79 74.878 288.81 75.898 C 286.83 76.928 284.36 77.698 281.38 78.208 C 278.4 78.728 274.9 79.048 270.87 79.178 C 266.84 79.318 262.14 79.378 256.78 79.378 C 250.72 79.378 245.52 79.198 241.19 78.848 C 236.86 78.498 233.32 77.578 230.56 76.088 C 227.8 74.598 225.77 72.358 224.47 69.348 C 223.17 66.378 222.53 62.228 222.53 56.918 Z  M 239.33 49.458 C 239.33 52.218 239.37 54.548 239.45 56.438 C 239.53 58.338 239.75 59.908 240.1 61.148 C 240.45 62.398 240.99 63.338 241.72 63.988 C 242.45 64.638 243.48 65.128 244.8 65.448 C 246.13 65.768 247.78 65.958 249.75 66.018 C 251.73 66.068 254.12 66.098 256.93 66.098 C 262.56 66.098 266.94 66.028 270.08 65.898 C 273.22 65.758 275.53 65.238 277.02 64.318 C 278.51 63.398 279.41 61.898 279.74 59.808 C 280.07 57.728 280.23 54.768 280.23 50.918 C 280.23 47.778 280.08 45.308 279.78 43.488 C 279.48 41.678 278.85 40.318 277.87 39.428 C 276.9 38.538 275.46 37.978 273.57 37.768 C 271.67 37.548 269.16 37.438 266.02 37.438 C 260.34 37.438 255.74 37.438 252.22 37.438 C 248.7 37.438 246 37.778 244.1 38.448 C 242.2 39.128 240.93 40.298 240.28 41.978 C 239.63 43.658 239.33 46.158 239.33 49.458 Z  M 322.46 24.698 L 322.46 65.368 L 359.72 65.368 L 359.72 78.848 L 305.82 78.848 L 305.82 24.698 L 322.46 24.698 L 322.46 24.698 Z  M 365.4 78.838 L 365.4 24.698 L 425.8 24.698 L 425.8 36.878 L 381.72 36.878 L 381.72 46.298 L 422.88 46.298 L 422.88 57.018 L 381.72 57.018 L 381.72 66.678 L 425.8 66.678 L 425.8 78.858 L 365.4 78.858 L 365.4 78.838 Z  M 545.86 24.698 L 523.54 78.848 L 501.13 78.848 L 489.12 40.448 L 476.62 78.848 L 454.46 78.848 L 432.46 24.698 L 449.43 24.698 L 465.18 65.778 L 479.39 24.698 L 499.28 24.698 L 512.76 65.778 L 529.08 24.698 L 545.86 24.698 L 545.86 24.698 Z  M 569.97 24.698 L 569.97 78.848 L 553.33 78.848 L 553.33 24.698 L 569.97 24.698 L 569.97 24.698 Z  M 631.42 43.768 C 631.37 42.088 631.12 40.818 630.69 39.948 C 630.26 39.078 629.44 38.458 628.26 38.078 C 627.07 37.698 625.38 37.498 623.19 37.468 C 621 37.438 618.12 37.428 614.54 37.428 C 610.48 37.428 607.21 37.468 604.72 37.548 C 602.23 37.628 600.28 38.028 598.87 38.728 C 597.46 39.438 596.52 40.608 596.03 42.258 C 595.54 43.908 595.3 46.308 595.3 49.438 C 595.3 53.448 595.42 56.538 595.67 58.728 C 595.91 60.918 596.64 62.548 597.86 63.598 C 599.08 64.658 600.96 65.278 603.5 65.468 C 606.04 65.658 609.59 65.748 614.14 65.748 C 617.55 65.748 620.39 65.748 622.66 65.748 C 624.93 65.748 626.73 65.538 628.06 65.098 C 629.39 64.668 630.33 63.918 630.9 62.868 C 631.47 61.808 631.75 60.228 631.75 58.118 L 647.99 58.118 C 647.99 58.548 648 58.948 648.03 59.298 C 648.06 59.648 648.07 60.038 648.07 60.478 C 648.07 63.238 647.89 65.668 647.54 67.788 C 647.19 69.898 646.58 71.688 645.71 73.148 C 644.84 74.608 643.68 75.778 642.22 76.638 C 640.76 77.508 638.95 78.048 636.78 78.268 C 633.26 78.648 629.95 78.928 626.84 79.118 C 623.73 79.308 620.87 79.398 618.27 79.398 C 609.77 79.398 601.85 79.158 594.48 78.668 C 591.61 78.508 589.18 77.888 587.17 76.798 C 585.17 75.718 583.54 74.138 582.3 72.048 C 581.05 69.968 580.15 67.358 579.58 64.218 C 579.01 61.078 578.73 57.318 578.73 52.938 C 578.73 50.178 578.76 47.648 578.81 45.348 C 578.86 43.048 579.07 40.938 579.42 39.018 C 579.77 37.098 580.31 35.338 581.04 33.738 C 581.77 32.148 582.81 30.698 584.17 29.398 C 585.52 28.098 587.11 27.098 588.92 26.398 C 590.73 25.698 592.86 25.178 595.29 24.858 C 597.73 24.528 600.49 24.328 603.57 24.248 C 606.66 24.168 610.12 24.128 613.96 24.128 C 620.62 24.128 626.1 24.268 630.4 24.538 C 634.7 24.808 638.1 25.568 640.59 26.808 C 643.08 28.058 644.81 29.998 645.79 32.658 C 646.76 35.308 647.28 39.018 647.33 43.778 L 631.42 43.778 L 631.42 43.768 Z  M 719.18 37.278 L 677.94 66.338 L 719.99 66.338 L 719.99 78.838 L 654.07 78.838 L 654.07 66.338 L 694.9 37.278 L 655.12 37.278 L 655.12 24.698 L 719.17 24.698 L 719.17 37.278 L 719.18 37.278 Z " fill-rule="evenodd" fill="url(#_lgradient_13)"/></g><g><radialGradient id="_rgradient_12" fx="0.5221238938053094" fy="0.4859675598356683" cx="0.5" cy="0.5" r="0.5" gradientTransform="matrix(98.995,-2.504,0,97.848,9.102,-2.822)" gradientUnits="userSpaceOnUse"><stop offset="2.608695652173913%" stop-opacity="1" style="stop-color:rgb(230,229,229)"/><stop offset="73.04347826086956%" stop-opacity="1" style="stop-color:rgb(174,174,174)"/><stop offset="100%" stop-opacity="1" style="stop-color:rgb(85,85,85)"/></radialGradient><path d=" M 66.78 27.188 C 54.62 21.708 34.017 24.428 22.388 26.218 C 12.544 43.069 14.737 64.462 21.862 76.226 C 15.603 90.726 19.98 105.178 19.98 105.178 C 19.98 105.178 19.13 81.668 46.23 63.978 C 70.93 47.848 78.95 32.668 66.78 27.188 Z  M 52.353 102.47 L 43.098 102.998 L 43.781 110.198 L 53.312 109.387 L 52.353 102.47 Z  M 51.687 93.458 L 43.434 93.964 L 42.99 98.963 L 51.629 98.537 L 51.687 93.458 Z  M 53.508 85.223 L 46.2 85.222 L 44.319 89.947 L 52.059 89.777 L 53.508 85.223 Z  M 47.653 81.903 L 54.614 81.992 L 56.045 79.231 L 49.45 79.054 L 47.653 81.903 Z  M 51.59 76.226 L 57.818 76.482 L 59.952 73.744 L 54.11 73.399 L 51.59 76.226 Z  M 57.043 70.6 L 62.497 71.005 L 65.231 68.247 L 60.069 67.856 L 57.043 70.6 Z  M 63.085 65.123 L 67.956 65.489 L 70.67 62.721 L 66.091 62.38 L 63.085 65.123 Z  M 69.078 59.649 L 73.364 59.955 L 76.007 57.181 L 72.003 56.9 L 69.078 59.649 Z  M 74.869 54.174 L 78.591 54.42 L 81.033 51.627 L 77.584 51.427 L 74.869 54.174 Z  M 80.078 48.671 L 83.263 48.815 L 85.122 45.982 L 82.201 45.904 L 80.078 48.671 Z  M 83.782 43.135 L 86.428 43.128 L 87.043 40.29 L 84.691 40.361 L 83.782 43.135 Z  M 84.839 36.224 C 84.882 36.679 84.956 37.133 84.98 37.6 L 87.019 37.494 C 86.955 37.03 86.821 36.569 86.727 36.106 L 86.415 34.719 L 84.698 34.857 L 84.839 36.224 Z  M 85.002 32.005 C 84.385 31.122 83.618 30.256 82.663 29.409 L 81.619 29.573 C 82.454 30.415 83.11 31.277 83.616 32.156 L 85.002 32.005 Z  M 79.211 27.01 C 77.859 26.254 76.28 25.39 74.473 24.756 L 74.114 25.173 C 75.812 25.832 77.264 26.394 78.507 27.165 L 79.211 27.01 Z  M 70.913 23.557 C 69.759 23.328 66.024 22.834 64.724 22.702 C 66.005 22.855 69.556 23.677 70.671 23.918 L 70.913 23.557 Z  M 96.1 15.664 C 96.1 13.835 97.426 12.35 99.06 12.35 C 100.694 12.35 102.02 13.835 102.02 15.664 C 102.02 17.493 100.694 18.978 99.06 18.978 C 97.426 18.978 96.1 17.493 96.1 15.664 Z " fill-rule="evenodd" fill="url(#_rgradient_12)"/><radialGradient id="_rgradient_13" fx="0.5" fy="0.5" cx="0.5" cy="0.5" r="0.5" gradientTransform="matrix(119.237,0,-11.488,119.999,5.744,-0.281)" gradientUnits="userSpaceOnUse"><stop offset="85.65217391304348%" stop-opacity="1" style="stop-color:rgb(55,88,168)"/><stop offset="100%" stop-opacity="1" style="stop-color:rgb(147,180,255)"/><stop offset="100%" stop-opacity="1" style="stop-color:rgb(145,178,255)"/></radialGradient><path d=" M 119.175 50.748 C 118.987 23.775 97.425 0.9 70.05 0.098 C 55.95 0.131 47.606 2.006 33.7 12.35 C 24.62 14.91 8.54 24.258 0 28.098 C 18.24 23.398 36.66 19.718 55.1 18.978 C 64.27 18.728 73.52 19.008 82.09 21.238 C 86.32 22.358 90.46 23.848 93.74 26.218 C 97.11 28.488 99.35 31.668 100.27 35.198 C 101.16 38.738 100.51 42.798 98.94 46.728 C 97.38 50.668 95.02 54.468 92.44 58.138 C 89.82 61.808 86.87 65.308 83.76 68.688 L 81.39 71.228 C 80.56 72.148 79.71 73.048 78.93 74.028 C 77.35 75.948 75.85 77.978 74.6 80.218 C 72.07 84.608 70.41 89.998 71.21 95.348 C 71.97 100.678 74.83 105.248 78.21 108.778 C 82.55 113.188 87.55 116.558 92.81 119.338 C 92.81 119.338 82.222 110.568 85.002 100.837 C 105.487 92.962 120.315 73.568 119.175 50.748 Z " fill="url(#_rgradient_13)"/></g></g></g></g></g></svg>