<?xml version="1.0" standalone="no"?>
<!DOCTYPE svg PUBLIC "-//W3C//DTD SVG 20010904//EN"
 "http://www.w3.org/TR/2001/REC-SVG-20010904/DTD/svg10.dtd">
<svg version="1.0" xmlns="http://www.w3.org/2000/svg"
 width="720.000000pt" height="720.000000pt" viewBox="0 0 720.000000 720.000000"
 preserveAspectRatio="xMidYMid meet">
<metadata>
Created by potrace 1.11, written by Peter Selinger 2001-2013
</metadata>
<g transform="translate(0.000000,720.000000) scale(0.100000,-0.100000)"
fill="#000000" stroke="none">
<path d="M3548 6764 c-2 -1 -43 -5 -93 -9 -133 -10 -197 -17 -268 -31 -16 -3
-38 -7 -50 -9 -64 -8 -195 -39 -237 -56 -14 -5 -34 -11 -45 -13 -68 -13 -404
-158 -413 -178 -2 -5 -11 -8 -19 -8 -8 0 -35 -13 -60 -30 -24 -16 -46 -30 -49
-30 -3 0 -25 -13 -49 -30 -24 -16 -46 -30 -49 -30 -5 0 -143 -91 -171 -112 -5
-5 -46 -34 -90 -65 -44 -31 -82 -61 -85 -65 -3 -4 -33 -16 -65 -27 -74 -24
-223 -81 -290 -112 -27 -12 -52 -23 -55 -24 -23 -5 -586 -283 -747 -368 -57
-30 -103 -52 -103 -48 0 3 -4 1 -8 -5 -4 -6 -38 -27 -77 -46 -140 -71 -180
-93 -186 -101 -3 -5 -9 -8 -13 -8 -11 1 -265 -124 -265 -131 -1 -4 9 -5 22 -2
54 10 68 13 75 18 5 3 19 7 33 10 13 3 53 12 89 21 36 9 74 18 85 21 19 4 75
16 85 19 3 1 12 5 20 8 8 3 29 8 45 10 17 3 68 14 115 26 47 12 95 23 108 26
12 3 30 7 41 9 54 12 219 48 236 52 11 2 31 6 45 9 14 4 36 8 50 11 14 2 36 7
50 9 14 3 36 7 50 10 14 3 48 9 75 15 28 5 61 11 75 14 14 2 63 11 110 20 47
8 99 18 115 21 17 2 39 7 50 9 11 2 42 7 68 10 27 4 58 9 70 12 12 2 39 6 62
9 22 4 51 8 65 10 14 3 45 7 70 9 25 3 56 8 70 11 14 3 48 7 75 10 73 8 119
13 162 20 22 3 66 8 99 11 32 2 79 7 104 9 25 2 79 7 120 10 41 4 91 9 110 10
128 12 344 19 585 19 336 0 518 -10 750 -40 28 -3 61 -7 75 -9 14 -1 36 -5 50
-8 14 -4 39 -8 55 -11 17 -2 68 -11 115 -21 107 -22 102 -21 120 -28 8 -4 26
-8 40 -10 14 -2 32 -7 40 -10 8 -3 60 -19 115 -36 55 -17 111 -36 125 -42 14
-7 34 -15 45 -20 109 -43 295 -144 295 -161 0 -4 6 -8 13 -8 18 0 73 -46 154
-128 122 -125 211 -303 228 -461 6 -48 6 -178 1 -216 -11 -85 -17 -115 -31
-165 -9 -30 -17 -59 -19 -65 -18 -74 -103 -269 -165 -380 -24 -44 -49 -90 -55
-102 -6 -13 -14 -23 -18 -23 -5 0 -8 -5 -8 -11 0 -6 -30 -57 -67 -112 -38 -56
-70 -107 -73 -112 -19 -39 -284 -374 -398 -503 -126 -143 -135 -153 -185 -206
-76 -82 -90 -98 -137 -156 -25 -30 -47 -57 -50 -60 -14 -13 -121 -162 -155
-215 -48 -76 -158 -285 -149 -285 4 0 2 -6 -3 -12 -15 -21 -71 -191 -78 -238
-1 -8 -5 -28 -9 -45 -37 -165 -21 -401 39 -580 22 -65 97 -229 107 -233 5 -2
8 -8 8 -13 0 -15 76 -126 144 -209 92 -112 240 -254 359 -343 29 -22 54 -42
57 -46 9 -14 297 -201 309 -201 6 0 11 -4 11 -9 0 -5 8 -11 18 -14 9 -3 37
-18 62 -33 51 -31 46 -23 -39 65 -158 164 -310 430 -335 586 -3 22 -9 58 -13
80 -13 87 5 273 28 276 5 1 12 2 17 4 10 2 100 43 136 61 16 8 35 14 42 14 7
0 14 3 16 8 2 4 37 24 78 45 346 174 673 438 943 761 104 125 297 415 297 447
0 5 4 9 10 9 5 0 9 3 8 8 -1 4 19 48 44 99 43 86 126 286 133 322 2 9 9 30 15
46 10 27 15 43 23 80 2 6 5 15 9 20 3 6 14 46 23 89 9 44 17 82 19 85 2 3 7
26 10 51 3 25 8 54 10 65 2 11 6 40 10 65 3 25 9 68 13 95 15 104 7 702 -11
756 -3 8 -7 38 -11 68 -3 30 -8 64 -10 75 -3 12 -7 32 -9 46 -3 14 -12 57 -21
95 -9 39 -19 81 -21 95 -3 14 -8 32 -10 40 -3 8 -5 16 -5 17 2 8 -111 317
-133 366 -47 103 -93 197 -106 212 -7 8 -9 15 -6 15 4 0 -7 20 -24 44 -16 25
-30 47 -30 50 0 23 -232 345 -306 426 -168 183 -396 389 -505 455 -9 6 -47 31
-85 56 -38 25 -85 54 -104 65 -19 10 -37 21 -40 24 -10 10 -213 111 -263 131
-78 31 -211 81 -222 83 -5 1 -15 4 -20 8 -6 4 -85 25 -175 47 -148 36 -207 47
-360 67 -44 6 -497 13 -502 8z"/>
<path d="M3670 5486 c0 -2 9 -6 20 -9 11 -3 20 -1 20 4 0 5 -9 9 -20 9 -11 0
-20 -2 -20 -4z"/>
<path d="M3736 5471 c12 -5 35 -12 53 -15 17 -3 44 -8 60 -11 16 -3 32 -1 36
5 3 5 -2 11 -12 11 -18 1 -34 4 -43 8 -3 1 -30 4 -60 6 -38 3 -49 2 -34 -4z"/>
<path d="M2387 5434 c-1 -1 -56 -5 -122 -8 -66 -3 -142 -8 -170 -11 -27 -2
-79 -7 -115 -11 -186 -17 -254 -24 -280 -29 -32 -5 -116 -17 -155 -20 -40 -4
-116 -15 -135 -20 -8 -2 -37 -7 -65 -10 -27 -3 -59 -8 -70 -10 -11 -2 -25 -4
-32 -4 -38 -3 -219 -418 -268 -616 -4 -16 -5 -21 -24 -87 -9 -35 -17 -70 -16
-78 1 -8 -2 -19 -6 -25 -4 -5 -10 -30 -13 -55 -4 -25 -9 -56 -11 -70 -43 -248
-51 -583 -20 -875 7 -64 36 -238 41 -246 2 -4 6 -24 10 -45 20 -138 112 -406
199 -581 l62 -125 -39 -104 c-21 -57 -39 -112 -41 -122 -1 -9 -6 -23 -10 -29
-5 -7 -6 -13 -2 -13 3 0 1 -8 -4 -19 -6 -10 -13 -33 -16 -52 -3 -19 -11 -54
-16 -79 -16 -69 -18 -80 -24 -133 -3 -28 -8 -53 -10 -57 -15 -25 -23 -420 -11
-570 9 -110 14 -155 16 -155 3 0 19 -114 22 -152 0 -5 4 -18 9 -31 5 -12 11
-34 13 -48 8 -40 12 -38 15 3 4 74 10 149 15 188 11 74 48 250 57 266 4 9 10
28 13 43 25 141 197 530 305 693 22 34 41 65 41 68 0 3 5 11 10 18 6 7 43 57
82 112 40 55 75 102 78 105 3 3 25 30 50 60 118 145 302 327 459 454 46 37 89
72 95 77 40 32 125 92 361 254 428 293 801 627 1033 921 51 64 134 196 176
279 39 75 54 116 84 220 12 45 10 194 -3 239 -40 131 -131 229 -278 301 -120
58 -290 113 -401 129 -21 4 -41 8 -45 10 -5 3 -50 10 -146 22 -16 2 -48 6 -70
9 -102 13 -617 29 -628 19z"/>
<path d="M4076 5383 c-13 -13 -4 -21 42 -38 26 -10 81 -35 123 -55 112 -54
120 -33 10 24 -100 52 -166 78 -175 69z"/>
<path d="M35 5220 c-3 -5 -1 -10 4 -10 6 0 11 5 11 10 0 6 -2 10 -4 10 -3 0
-8 -4 -11 -10z"/>
<path d="M4488 5116 c3 -6 28 -39 55 -75 41 -56 52 -65 75 -63 15 2 30 7 34
11 4 4 -19 37 -53 73 -50 56 -65 67 -88 65 -16 -1 -26 -6 -23 -11z"/>
<path d="M4654 4817 c-3 -8 -3 -36 0 -63 2 -27 5 -57 5 -66 1 -17 23 -19 104
-9 6 1 4 66 -3 66 -1 0 -3 9 -5 19 -12 64 -14 66 -56 66 -24 0 -42 -5 -45 -13z"/>
<path d="M4748 4525 c-3 -3 -27 -7 -54 -8 l-49 -2 -22 -69 c-13 -38 -21 -72
-18 -76 2 -4 34 -8 69 -8 73 0 67 -6 86 92 11 52 5 87 -12 71z"/>
<path d="M4488 4177 c-13 -17 -27 -35 -33 -41 -21 -24 -57 -78 -53 -81 2 -2
39 -5 82 -7 74 -2 79 -1 100 24 28 35 76 113 76 124 0 5 -34 10 -75 10 -71 1
-75 0 -97 -29z"/>
<path d="M4183 3825 c-82 -84 -83 -80 43 -90 l81 -6 54 61 c30 34 60 68 67 76
18 19 8 22 -93 28 l-80 4 -72 -73z"/>
<path d="M3872 3519 c-40 -39 -70 -74 -67 -78 4 -3 23 -6 43 -7 20 -2 67 -5
105 -8 l67 -6 48 50 c80 83 95 100 91 105 -2 2 -51 6 -109 10 l-105 6 -73 -72z"/>
<path d="M3578 3242 c-102 -92 -112 -102 -107 -106 2 -3 38 -7 79 -10 41 -3
97 -8 125 -11 l49 -5 74 75 c41 42 73 78 70 80 -2 2 -46 7 -98 10 -52 3 -105
7 -117 9 -16 3 -37 -9 -75 -42z"/>
<path d="M3248 2937 c-24 -23 -60 -57 -81 -74 -21 -18 -36 -34 -35 -34 4 -2
53 -6 148 -13 47 -4 99 -9 115 -11 27 -4 39 5 103 70 41 41 68 77 62 80 -6 4
-34 8 -63 10 -29 2 -86 6 -128 9 l-77 5 -44 -42z"/>
<path d="M2933 2628 c-21 -23 -50 -55 -65 -71 -16 -17 -28 -34 -28 -38 0 -5
24 -10 53 -10 28 -1 75 -3 102 -4 139 -8 177 -7 183 2 4 5 29 37 56 72 26 34
46 64 43 67 -2 2 -35 7 -73 9 -38 2 -106 7 -151 10 l-82 5 -38 -42z"/>
<path d="M2733 2352 c-15 -2 -37 -27 -68 -76 -25 -40 -45 -75 -45 -78 0 -3 85
-6 189 -7 l188 -2 37 74 c20 40 36 75 36 78 0 2 -68 5 -152 7 -83 2 -154 4
-157 6 -3 1 -16 0 -28 -2z"/>
<path d="M2529 1999 c-8 -5 -11 -9 -7 -9 4 0 -5 -28 -19 -62 -14 -35 -36 -90
-48 -124 l-23 -60 106 2 c59 2 153 4 210 5 57 2 105 6 108 10 6 10 74 231 74
241 0 11 -384 8 -401 -3z"/>
<path d="M2748 1545 c-3 -3 -116 -11 -287 -20 -41 -3 -75 -6 -77 -8 -4 -3 -17
-175 -18 -232 l-1 -40 50 1 c91 1 410 16 413 19 2 2 4 65 5 141 l2 138 -42 2
c-23 1 -44 0 -45 -1z"/>
<path d="M2815 1042 c-1 -1 -40 -5 -86 -7 -46 -2 -133 -7 -194 -11 -60 -4
-122 -7 -137 -7 -29 -1 -34 -15 -27 -77 1 -14 3 -42 3 -62 1 -21 3 -38 6 -38
3 0 5 -19 6 -43 1 -58 12 -166 18 -176 3 -4 20 -7 38 -6 64 5 204 17 238 21
61 6 194 16 213 16 21 -1 39 38 25 54 -5 7 -8 16 -6 20 2 10 -15 156 -21 174
-1 3 -4 23 -6 45 -3 22 -7 49 -9 60 -2 11 -5 25 -5 30 -1 9 -48 15 -56 7z"/>
</g>
</svg>
